<?xml version="1.0" encoding="UTF-8"?>
<svg width="396px" height="90px" viewBox="0 0 396 90" version="1.1" xmlns="http://www.w3.org/2000/svg" xmlns:xlink="http://www.w3.org/1999/xlink">
    <title>Group</title>
    <g id="Page-1" stroke="none" stroke-width="1" fill="none" fill-rule="evenodd">
        <g id="moca" transform="translate(-82, -155)" fill="#FFFFFF">
            <g id="Group" transform="translate(-76.8673, -57.7161)">
                <polygon id="Path" points="504.158991 212.716066 454.99232 299.104962 554.436773 299.104962"></polygon>
                <path d="M438.742319,225.354956 C442.214542,228.68829 444.575653,232.993846 443.881208,238.132735 C443.464542,241.32718 441.520097,244.382736 438.325652,245.771625 C435.825652,247.021625 432.35343,246.466069 430.131207,244.938291 C424.297873,241.882735 422.908984,235.632735 420.408984,230.493846 C417.631206,226.882734 413.186761,225.354956 408.603428,226.604956 C400.270094,229.104957 398.325649,237.993846 396.658982,245.216069 C394.575649,255.771625 394.575649,268.132738 397.908982,277.993849 C400.408983,284.24385 406.520094,289.938295 413.464539,290.077184 C422.492318,291.049406 430.686763,287.99385 436.658986,280.910516 L437.770097,279.521627 C439.714541,281.188294 441.797875,282.99385 443.464542,284.799406 C432.908985,298.688296 416.381206,303.827185 399.297871,300.216073 C387.631204,297.993851 375.825647,290.077184 370.964536,278.549405 C365.686758,267.438293 366.381202,252.438292 371.797869,241.466069 C378.04787,227.160512 392.908982,219.382734 407.492317,217.854956 C419.020095,216.882733 430.131207,218.688289 438.742319,225.354956" id="Path"></path>
                <circle id="Oval" cx="303.325642" cy="259.382737" r="43.3333368"></circle>
                <polygon id="Path" points="159.297852 219.243845 239.853414 219.243845 239.853414 298.688295 159.297852 298.688295"></polygon>
            </g>
        </g>
    </g>
</svg>