<svg xmlns="http://www.w3.org/2000/svg" viewBox="0 0 152 48.312"><defs><style>.cls-1{fill:#d6d7d9;}</style></defs><title>vHme7U.tif</title><g id="Layer_2" data-name="Layer 2"><g id="Layer_1-2" data-name="Layer 1"><g id="vHme7U.tif"><path class="cls-1" d="M10.412,35.073H4.44C3.707,31.7,2.976,28.351,2.251,25S.828,18.28.064,14.933C-.1,14.222.023,13.892.708,13.57Q14.847,6.914,28.966.216A1.907,1.907,0,0,1,30.127.03c5.518,1.329,11.028,2.7,16.539,4.056a2.057,2.057,0,0,1,.374.2q-1.575,15.321-3.163,30.769H35.145c-.553-7.5-1.1-14.957-1.655-22.435-.835.007-.986.445-1.028,1.086-.442,6.742-.929,13.482-1.34,20.227-.06.975-.337,1.271-1.312,1.229-1.821-.08-3.649-.023-5.58-.023-1.068-6.274-2.123-12.473-3.177-18.671-1-.034-.831.615-.827,1.141q.059,8.12.124,16.241c0,.369,0,.739,0,1.278-1.984,0-3.912.035-5.836-.046-.228-.01-.535-.623-.628-1C12.8,29.7,11.754,25.305,10.7,20.915c-.094-.391-.2-.78-.3-1.159-1.015.01-.8.678-.764,1.2.253,3.986.525,7.971.774,11.958C10.45,33.607,10.412,34.308,10.412,35.073Z"/><path class="cls-1" d="M63.344,7.429H58.119c.269-2.269.531-4.475.806-6.788.4-.019.763-.051,1.123-.051C67.069.587,74.089.6,81.109.565c.853,0,1.153.275,1.317,1.07Q83.761,8.1,85.194,14.548a.918.918,0,0,1-.54,1.23c-1.321.687-2.6,1.445-3.988,2.222,1.963,4.7,3.908,9.367,5.9,14.148H77.456c-.765-3.57-1.536-7.171-2.35-10.97-1.9,1.044-3.722,2.016-5.5,3.061-.224.132-.3.642-.316.983-.1,2.342-.171,4.685-.252,7.084H60.881C61.7,24.047,62.515,15.805,63.344,7.429Zm6.293-.507v9.731c2.371-1.1,4.763-2.2,7.139-3.337a.752.752,0,0,0,.326-.61c-.224-1.947-.489-3.89-.736-5.784Z"/><path class="cls-1" d="M127.678,32.183H103.743c.275-10.512.548-20.971.823-31.512h21.592C126.662,11.124,127.168,21.605,127.678,32.183ZM111.511,7.124c.132,6.087.264,12.215.394,18.244H119.4V7.124Z"/><path class="cls-1" d="M136.922,6.965l-6.758-.312c-.093-2.024-.181-3.975-.274-6,.492-.026.855-.061,1.218-.061,6.314,0,12.628.016,18.942-.023.9-.006,1.219.238,1.291,1.154.147,1.884.431,3.758.659,5.635h-8.4c.816,8.237,1.633,16.491,2.458,24.816h-8.431C137.4,23.814,137.16,15.445,136.922,6.965Z"/><path class="cls-1" d="M98.777,32.2H90.466c.183-10.513.366-21,.55-31.546H97.94C98.219,11.153,98.5,21.614,98.777,32.2Z"/><path class="cls-1" d="M42.621,48.249l-5.534-1.392c-3.912-.983-7.829-1.944-11.727-2.978a1.991,1.991,0,0,1-1.144-.994c-.683-1.524-1.243-3.1-1.928-4.865l21.3,1.106C43.261,42.225,42.948,45.173,42.621,48.249Z"/><path class="cls-1" d="M104.308,42.842c1.295-1.461,2.528-2.858,3.768-4.248a4.477,4.477,0,0,1,3.24-.492.716.716,0,0,1,.239.463c.349,3.177.685,6.356,1.039,9.681a28.156,28.156,0,0,1-3.008-.043c-.244-.026-.6-.572-.612-.889-.06-1.783-.029-3.57-.029-5.383l-4.561,4.2L99.9,41.823c-.1,2.164-.2,4.22-.3,6.349H96.143c.323-3.4.639-6.726.951-10.017,1.766-.344,3.2-.263,4.294,1.362A32.711,32.711,0,0,0,104.308,42.842Z"/><path class="cls-1" d="M71.663,38.145c.045.723.082,1.34.131,2.13H62.97c-.1,1.958-.193,3.761-.294,5.723H69.11V44.282l-2.988-.212c.054-.622.1-1.192.164-1.889h5.658q.129,2.853.271,5.977H59.224c.3-3.164.583-6.275.912-9.381.024-.228.377-.6.581-.605C64.332,38.135,67.948,38.145,71.663,38.145Z"/><path class="cls-1" d="M91.166,48.245c-1.089,0-2.054.059-3-.039-.261-.027-.582-.487-.688-.81-.535-1.632-.513-1.649-2.228-1.671-1.263-.016-2.526,0-3.791,0a.623.623,0,0,0-.128.17c-.746,2.6-.745,2.6-3.953,2.265.233-.9.456-1.778.692-2.656.589-2.2,1.207-4.383,1.765-6.587.162-.638.4-.921,1.119-.9,2.2.049,4.4,0,6.6.039.326.006.87.233.937.466C89.407,41.693,90.257,44.892,91.166,48.245Zm-9.242-4.6h4.5c0-3.11-.488-3.584-3.18-3.3-.074.008-.171-.02-.219.017-.184.145-.461.283-.509.472C82.292,41.726,82.13,42.634,81.924,43.641Z"/><path class="cls-1" d="M135.032,48.184c.089-.652.168-1.224.256-1.867l8.809-.425c.383-.736.075-.985-.63-1.1-2.536-.428-5.065-.892-7.755-1.37.172-1.735.34-3.421.515-5.188H146.6c.055.643.107,1.26.18,2.117h-7.93c-.428.942-.241,1.288.579,1.408,2.178.319,4.344.725,6.523,1.039.77.111,1.183.349,1.222,1.218.06,1.369.256,2.732.4,4.172Z"/><path class="cls-1" d="M121.366,39.942v1.974h6.1v2.106h-5.939V46h8.051c.068.866.117,1.478.171,2.174H118.3V37.962H129.42v1.98Z"/></g></g></g></svg>