<svg xmlns="http://www.w3.org/2000/svg" id="Layer_2" data-name="Layer 2" viewBox="0 0 1519 1253.41"><defs><style>.cls-1{fill:#fff}</style></defs><g id="Layer_1-2" data-name="Layer 1"><path d="M979 0v111H746v249h203v111H746v351H628V0h351zM1173 0v704h234v118h-352c.8-.97 0-1.89 0-2.5V0h118ZM1519 1252h-20c-.27-.73 1-1.2 1-1.5v-68c0-1.24-1.72-7.07-2.44-8.56-3.8-7.86-16.15-6.51-18.13 1.99-3.8 16.29-1.94 53.46-1.49 71.63.04 1.7.33 2.94 1.06 4.44h-20v-71.5c0-.58-1.66-6.02-2.12-6.88-2.83-5.39-11.84-6.48-15.9-2.14-.51.55-2.98 4.73-2.98 5.02v75.5h-20v-102h20l.5 11.01c5.31-9.85 16.39-14.89 27.18-10.19 4.81 2.09 6.38 5.84 10.68 8.11 9.41-11.8 30.13-14.29 38.83-.62.65 1.02 3.81 7.66 3.81 8.19v85.5ZM241 1150l12.5 64.01 11.5-64.02 15.86.14L292.5 1214l12.5-64.01h21l-23.46 101.04-17.66.38c-4.34-19.5-7.31-39.27-10.92-58.91-.3-1.65.65-1.72-1.96-1.51l-11.14 60.87-17.85.13L220 1150h21ZM131 1150l12.5 64.01 11.5-64.02 15.9.12 11.6 63.9L195 1150h21l-25.46 102.07-16.1-1.01-10.95-60.07-12.38 60.43-18.1.57L110 1150h21zM21 1150l11.01 65 2.74-3.75 10.82-61.27 15.33.13L72.99 1214 85 1150.01h21l-23.46 101.04c-1.06 1.52-16.99 1.56-18.08 0l-12.45-61.04-11.15 61.86-17.85.13L0 1150h21ZM1186 1252v-8.99c-.88-1.03-7.43 5.76-8.86 6.64-16.3 10.08-30.85-1.35-32.19-19.1-1.24-16.53-1.3-44.59 0-61.08.22-2.76.86-5.62 1.74-8.23.39-1.15 1.84-1.23 1.96-1.46.43-.84-.6-2.15 1.3-4.29 10.27-11.56 27.48-6.27 36.03 4.51v-51h18.51v143h-18.5Zm-5.1-19.1c.32-2.77 2.74-4.56 3.59-6.91 2.52-6.93 2.3-36.07 1.38-44.37-1.79-16.06-18.99-16.81-20.78-4.04-1.19 8.46-1.2 37.38 0 45.82 1.37 9.67 7.72 9.7 15.82 9.49ZM891 1150h-20c.9-12.49-3.71-24.44-18.45-21.94-11.9 2.02-13.31 23.33-8.38 31.27 6.96 11.21 33.97 9.69 42.71 27.29 7.31 14.74 5.17 50.11-9.54 60.21-25.7 17.64-61.29-3.38-56.34-34.84h20c-.23 5.66-.27 13.97 4.48 18.02 5.79 4.94 20.44 4.08 23.6-3.44 2.71-6.44 3.46-27.49-1.82-32.62-6.01-5.84-23.35-9.69-31.57-15.16-11.87-7.89-14.67-22.7-13.68-36.29 3.74-51.43 75.45-42.86 68.98 7.48ZM391 1196v56h-20v-143h39.5c4.11 0 14.01 5.86 17.04 8.96 17.34 17.75 13.28 78.04-19.04 78.04H391Zm0-19c6.42-.06 18.36.54 23.02-4.48 5.56-5.99 5.45-32.26.99-39.03-1.18-1.79-6.67-5.49-8.51-5.49H391v49ZM628 1196v56h-20v-143h36.5c3.04 0 12.61 3.72 15.39 5.61 23.73 16.18 19.78 81.39-17.39 81.39H628Zm0-19h15.5c4.12 0 9.77-6.15 10.82-10.18 1.32-5.08 1.33-22.58.24-27.87-.93-4.51-4.92-10.94-10.06-10.94h-15c-.3 0-.77-1.27-1.5-1v50ZM1126 1252h-20v-71.5c0-.98-1.67-5.46-2.33-6.67-4.75-8.76-18.67-4.56-18.67 2.67v75.5h-20v-102h20v10c8.08-10.23 22.56-15.79 33.33-5.83 8.91 8.23 6.06 17.87 6.63 28.37.82 15.28 1.43 30.58 1.08 46-.17 7.48-2.68 15.81-.04 23.46ZM516 1109v19h-41v43c11.23 1.83 22.67.38 33.96.41 1.17 0 1.29.07 2.04 1.09v17l-1.5 1.5H475v61h-20v-143h61ZM1004 1150v75.5c0 .29 2.47 4.48 2.98 5.02 4.06 4.34 13.07 3.25 15.9-2.14.45-.87 2.12-6.3 2.12-6.88V1150h20c.58 1.4-1 3-1 3.5v98.5h-19l-.51-10.01c-1.76.04-4.4 4.85-6.56 6.44-9.79 7.22-25.45 5.56-31.14-5.73-.45-.9-2.79-6.82-2.79-7.2V1150h20ZM914.35 1157.35c17.44-17.09 49.45-7.6 51.68 18.11 1.09 12.57 1.37 41.64-.29 53.78-3.89 28.34-47.11 32.21-57.02 6.54-4.09-10.59-3.73-44.97-2.7-57.27.63-7.49 2.89-15.82 8.34-21.16Zm19.4 11.86c-4.04.77-7.07 4.36-7.68 8.36-1.27 8.28-1.11 37.36-.09 45.96 1.37 11.46 16.26 12.92 19.76 2.71 2.32-6.79 1.95-34.49 1.3-42.77s-3.17-16.18-13.29-14.26ZM754.35 1157.35c17.44-17.09 49.45-7.6 51.68 18.11 1.09 12.57 1.37 41.64-.29 53.78-4.32 31.47-56.65 33.8-59.78-5.71-.98-12.4-1.42-49.41 3.53-59.55.82-1.68 3.56-5.35 4.86-6.64Zm19.4 11.86c-4.04.77-7.07 4.36-7.68 8.36-1.27 8.28-1.11 37.36-.09 45.96 1.37 11.46 16.26 12.92 19.76 2.71 2.32-6.79 1.95-34.49 1.3-42.77-.64-8.19-3.17-16.18-13.29-14.26ZM1347.36 1244.64c-1.63-1.63-4.45-5.94-5.38-8.12-4.39-10.31-3.95-45.76-3.02-58.06 3.02-39.93 55.51-36.83 59.78-5.7 1.67 12.14 1.38 41.21.29 53.78-2.21 25.42-34.44 35.37-51.68 18.11Zm19.37-75.41c-4.06.83-7.05 4.28-7.67 8.34-1.27 8.28-1.11 37.36-.09 45.96 1.37 11.46 16.26 12.92 19.76 2.71 2.32-6.79 1.95-34.49 1.3-42.77-.65-8.3-3.15-16.3-13.3-14.24ZM551 1109v122h39.5l1.5 1.5v19.5h-61v-143h20zM1326 1181h-18.5c-2.67-3.96-1.02-8.22-6.23-10.77-7.06-3.45-14.35.33-15.3 8.25-1.83 15.36 1.21 34.61.3 50.32 7.44 6.67 19.46 5.93 19.72-5.8h21c-1.61 15.44-10.78 27.63-26.76 29.74-12.42 1.64-26.86-4.88-31.53-16.96-4.09-10.6-4.04-53.52-1.44-65.01 7.73-34.19 62.62-25.85 58.72 10.22ZM1070 861l12.52.98L1102 915v-54h13v91l-12.5-1-19.5-52v53h-13v-91zM1310 861l12.52.98L1342 915v-54h13v91l-12.5-1-19.5-52v53h-13v-91zM724 952h-14l-11.89-38.4-8.11-.6v39h-13v-91h25.5c1.64 0 9.45 3.68 11.02 4.98 10.59 8.85 10.64 37.19-3.06 44.03l-.44 1.42L724 952Zm-34-50c11.28.56 17.34.15 18.04-12.45.81-14.51-4.02-17.17-18.04-16.55v29ZM786 952v-91h23.5c.66 0 5.84 1.64 6.9 2.1 7.52 3.19 10.96 10.53 11.63 18.37 1.01 11.8 1.41 42.51-.48 53.59-.84 4.89-3.58 9.5-7.53 12.47-1.52 1.14-8.25 4.48-9.52 4.48H786Zm13-12c6.19.19 13.65.22 15.79-6.71-.76-16.3 1.73-34.8.26-50.84-.88-9.56-7.94-9.6-16.05-9.45v67ZM1390.5 861c11.15 1.49 17.6 9.55 18.54 20.46.86 10.02 1.28 48.71-1.32 56.75-1.2 3.72-4.99 8.68-8.37 10.63-1.06.61-8.16 3.15-8.85 3.15H1367v-91c7.37.7 16.34-.96 23.5 0Zm-10.5 79c8.1.14 15.17.11 16.05-9.45.82-8.87 1.3-43.09-.48-50.62-1.52-6.46-10.35-8.95-15.57-5.43V940ZM738 1149v21c-7.31-2.58-16.81-.12-21.99 5.51-1.19 1.29-5.01 7.7-5.01 8.99v67.5h-20v-102h20l.5 11c7.37-6.86 16.07-12.14 26.5-12ZM753.67 860.39c9.15.09 17.27 5.55 20.05 14.39 2.59 8.25 2.23 47.58 1.32 57.76-2.2 24.54-35.68 26.72-42.37 6.29-3.08-9.42-2.44-42.2-1.72-53.38.89-13.93 7.21-25.21 22.72-25.07Zm-3.96 13.83c-4.41 1.03-5.31 6.36-5.7 10.29-1.06 10.7-1.06 33.28 0 43.98.21 2.17 1.16 6.93 2.51 8.49 4.49 5.2 14.28 2.71 15.43-4.54 1.41-8.93 1.12-40.52.06-49.94-.82-7.21-5.08-9.97-12.29-8.28ZM1222.67 860.39c12.97-.21 21.29 8.54 22.37 21.08.86 9.98 1.28 48.83-1.26 56.81-6.19 19.39-35.12 18.83-41.1.56-3.08-9.4-2.44-42.23-1.72-53.38.87-13.39 6.66-24.82 21.71-25.06Zm.84 13.09c-8.26-.22-9.08 6.4-9.56 12.98-.78 10.72-1.18 33.55.3 43.78 1.89 13.09 16.67 12.45 17.79.31 1-10.81 1.31-38.59-.14-48.96-.64-4.61-3.53-7.99-8.39-8.11ZM1035.67 860.39c12.97-.21 21.29 8.54 22.37 21.08.86 9.98 1.28 48.83-1.26 56.81-6.19 19.39-35.12 18.83-41.1.56-3.08-9.42-2.44-42.21-1.72-53.38.85-13.31 6.79-24.82 21.71-25.06Zm-.01 12.9c-6.05.3-7.93 5.05-8.55 10.32-1.24 10.57-1.06 33.12-.15 43.93 1.14 13.49 12.32 17.48 17.98 4.91-1.02-16.09 1.55-34.15.1-49.99-.47-5.11-3.72-9.44-9.39-9.16ZM854 861v71.5c0 9.07 16 8.49 16 2V861h13v75.5c0 .44-2.59 5.96-3.16 6.84-6.81 10.48-22.4 12.59-31.74 4.06-2.31-2.11-7.1-10-7.1-12.9V861h13ZM1269 861v71.5c0 9.07 16 8.49 16 2V861h13v75.5c0 .44-2.59 5.96-3.16 6.84-6.81 10.48-22.4 12.59-31.74 4.06-2.31-2.11-7.1-10-7.1-12.9V861h13ZM1192.01 887.01H1179c.94-6.62-2.18-14.83-10.06-13.58-6.44 1.02-8.14 7.25-8.02 13.07.33 15.02 22.24 10.97 28.64 23.44 2.9 5.64 3.02 15.26 2.42 21.54-3.12 32.7-48.8 25.75-43.99-5.49l12.07.44c2.59 1.81-2.53 11.02 7.9 13.18 12 2.48 12.07-10.53 11.06-19.13-1.24-10.56-20.85-9.38-27.23-19.77-6.95-11.34-4.08-34.61 10.37-39.04 17.36-5.32 32.81 7.12 29.84 25.34ZM639 917v35h-13v-91h23.5c5.93 0 13.91 6.27 16.39 11.61 3.88 8.35 3.3 27.93-2.06 35.72-5.89 8.56-15.5 7.89-24.83 8.67Zm0-44v31c9.18.16 16.03 1.65 17.05-9.45 1.37-14.86.16-23.03-17.05-21.55ZM930.65 866.35c5 5.36 5.93 13.66 5.35 20.66h-13.01c2.2-15.78-14.45-20.07-16.03-1.54-.95 11.16-.95 31.88.05 43.02 1.59 17.75 18.89 13.27 15.98-2.49l12.96.05c4.85 30.69-38.67 38.48-41.83 5.33-1.01-10.65-1.53-47.55 1.13-56.61 4.31-14.66 25.42-19.1 35.39-8.42ZM984 861v12h-15v79h-13v-77.5c-1.84-3.23-14.02-.51-15.01-1.49V861H984ZM990 861l11.86.14c1.08 1.98 1.06 4.13 1.19 6.32 1.6 27.61-1.37 56.93-.05 84.53h-13V861ZM331 1232h20v20h-20zM1225 1232h20v20h-20zM276 501v321H158V0h198.49c106.49 5.71 168.57 73.23 180.38 176.63 5.23 45.8 5.17 101.94 0 147.75-9.65 85.46-60.2 156.27-147.85 172.15-37.25 6.75-75.31 3.89-113.02 4.48Zm0-111c46.18-2.38 110.01 11.88 138.42-35.08 11.47-18.96 13.75-41.57 14.62-63.38 1.46-36.46 4.07-108.39-10.87-140.21C392.1 95.8 325.42 114.23 276 111v279Z" class="cls-1"/></g></svg>